STARTFONT 2.1
COMMENT Exported by Fony v1.4.7
FONT vbz-font
SIZE 12 96 96
FONTBOUNDINGBOX 10 12 0 -2
STARTPROPERTIES 7
COPYRIGHT "Created with Fony 1.4.7"
RESOLUTION_X 96
RESOLUTION_Y 96
FONT_ASCENT 10
FONT_DESCENT 2
DEFAULT_CHAR 0
_GBDFED_INFO "Edited with gbdfed 1.6."
ENDPROPERTIES
CHARS 256
STARTCHAR 000
ENCODING 0
SWIDTH 562 0
DWIDTH 9 0
BBX 0 0 0 0
BITMAP
ENDCHAR
STARTCHAR 001
ENCODING 1
SWIDTH 562 0
DWIDTH 9 0
BBX 0 0 0 0
BITMAP
ENDCHAR
STARTCHAR 002
ENCODING 2
SWIDTH 562 0
DWIDTH 9 0
BBX 0 0 0 0
BITMAP
ENDCHAR
STARTCHAR 003
ENCODING 3
SWIDTH 562 0
DWIDTH 9 0
BBX 0 0 0 0
BITMAP
ENDCHAR
STARTCHAR 004
ENCODING 4
SWIDTH 562 0
DWIDTH 9 0
BBX 0 0 0 0
BITMAP
ENDCHAR
STARTCHAR 005
ENCODING 5
SWIDTH 562 0
DWIDTH 9 0
BBX 0 0 0 0
BITMAP
ENDCHAR
STARTCHAR 006
ENCODING 6
SWIDTH 562 0
DWIDTH 9 0
BBX 0 0 0 0
BITMAP
ENDCHAR
STARTCHAR 007
ENCODING 7
SWIDTH 562 0
DWIDTH 9 0
BBX 0 0 0 0
BITMAP
ENDCHAR
STARTCHAR 008
ENCODING 8
SWIDTH 562 0
DWIDTH 9 0
BBX 0 0 0 0
BITMAP
ENDCHAR
STARTCHAR 009
ENCODING 9
SWIDTH 562 0
DWIDTH 9 0
BBX 0 0 0 0
BITMAP
ENDCHAR
STARTCHAR 010
ENCODING 10
SWIDTH 562 0
DWIDTH 9 0
BBX 0 0 0 0
BITMAP
ENDCHAR
STARTCHAR 011
ENCODING 11
SWIDTH 562 0
DWIDTH 9 0
BBX 0 0 0 0
BITMAP
ENDCHAR
STARTCHAR 012
ENCODING 12
SWIDTH 562 0
DWIDTH 9 0
BBX 0 0 0 0
BITMAP
ENDCHAR
STARTCHAR 013
ENCODING 13
SWIDTH 562 0
DWIDTH 9 0
BBX 0 0 0 0
BITMAP
ENDCHAR
STARTCHAR 014
ENCODING 14
SWIDTH 562 0
DWIDTH 9 0
BBX 0 0 0 0
BITMAP
ENDCHAR
STARTCHAR 015
ENCODING 15
SWIDTH 562 0
DWIDTH 9 0
BBX 0 0 0 0
BITMAP
ENDCHAR
STARTCHAR 016
ENCODING 16
SWIDTH 562 0
DWIDTH 9 0
BBX 0 0 0 0
BITMAP
ENDCHAR
STARTCHAR 017
ENCODING 17
SWIDTH 562 0
DWIDTH 9 0
BBX 0 0 0 0
BITMAP
ENDCHAR
STARTCHAR 018
ENCODING 18
SWIDTH 562 0
DWIDTH 9 0
BBX 0 0 0 0
BITMAP
ENDCHAR
STARTCHAR 019
ENCODING 19
SWIDTH 562 0
DWIDTH 9 0
BBX 0 0 0 0
BITMAP
ENDCHAR
STARTCHAR 020
ENCODING 20
SWIDTH 562 0
DWIDTH 9 0
BBX 0 0 0 0
BITMAP
ENDCHAR
STARTCHAR 021
ENCODING 21
SWIDTH 562 0
DWIDTH 9 0
BBX 0 0 0 0
BITMAP
ENDCHAR
STARTCHAR 022
ENCODING 22
SWIDTH 562 0
DWIDTH 9 0
BBX 0 0 0 0
BITMAP
ENDCHAR
STARTCHAR 023
ENCODING 23
SWIDTH 562 0
DWIDTH 9 0
BBX 0 0 0 0
BITMAP
ENDCHAR
STARTCHAR 024
ENCODING 24
SWIDTH 562 0
DWIDTH 9 0
BBX 0 0 0 0
BITMAP
ENDCHAR
STARTCHAR 025
ENCODING 25
SWIDTH 562 0
DWIDTH 9 0
BBX 0 0 0 0
BITMAP
ENDCHAR
STARTCHAR 026
ENCODING 26
SWIDTH 562 0
DWIDTH 9 0
BBX 0 0 0 0
BITMAP
ENDCHAR
STARTCHAR 027
ENCODING 27
SWIDTH 562 0
DWIDTH 9 0
BBX 0 0 0 0
BITMAP
ENDCHAR
STARTCHAR 028
ENCODING 28
SWIDTH 562 0
DWIDTH 9 0
BBX 0 0 0 0
BITMAP
ENDCHAR
STARTCHAR 029
ENCODING 29
SWIDTH 562 0
DWIDTH 9 0
BBX 0 0 0 0
BITMAP
ENDCHAR
STARTCHAR 030
ENCODING 30
SWIDTH 562 0
DWIDTH 9 0
BBX 0 0 0 0
BITMAP
ENDCHAR
STARTCHAR 031
ENCODING 31
SWIDTH 625 0
DWIDTH 10 0
BBX 0 0 0 0
BITMAP
ENDCHAR
STARTCHAR 032
ENCODING 32
SWIDTH 312 0
DWIDTH 5 0
BBX 0 0 0 0
BITMAP
ENDCHAR
STARTCHAR 033
ENCODING 33
SWIDTH 562 0
DWIDTH 9 0
BBX 0 0 0 0
BITMAP
ENDCHAR
STARTCHAR 034
ENCODING 34
SWIDTH 562 0
DWIDTH 9 0
BBX 0 0 0 0
BITMAP
ENDCHAR
STARTCHAR 035
ENCODING 35
SWIDTH 562 0
DWIDTH 9 0
BBX 0 0 0 0
BITMAP
ENDCHAR
STARTCHAR 036
ENCODING 36
SWIDTH 562 0
DWIDTH 9 0
BBX 0 0 0 0
BITMAP
ENDCHAR
STARTCHAR 037
ENCODING 37
SWIDTH 562 0
DWIDTH 9 0
BBX 0 0 0 0
BITMAP
ENDCHAR
STARTCHAR 038
ENCODING 38
SWIDTH 562 0
DWIDTH 9 0
BBX 0 0 0 0
BITMAP
ENDCHAR
STARTCHAR 039
ENCODING 39
SWIDTH 187 0
DWIDTH 3 0
BBX 2 3 0 6
BITMAP
C0
C0
80
ENDCHAR
STARTCHAR 040
ENCODING 40
SWIDTH 562 0
DWIDTH 9 0
BBX 0 0 0 0
BITMAP
ENDCHAR
STARTCHAR 041
ENCODING 41
SWIDTH 562 0
DWIDTH 9 0
BBX 0 0 0 0
BITMAP
ENDCHAR
STARTCHAR 042
ENCODING 42
SWIDTH 562 0
DWIDTH 9 0
BBX 0 0 0 0
BITMAP
ENDCHAR
STARTCHAR 043
ENCODING 43
SWIDTH 562 0
DWIDTH 9 0
BBX 0 0 0 0
BITMAP
ENDCHAR
STARTCHAR 044
ENCODING 44
SWIDTH 562 0
DWIDTH 9 0
BBX 0 0 0 0
BITMAP
ENDCHAR
STARTCHAR 045
ENCODING 45
SWIDTH 562 0
DWIDTH 9 0
BBX 0 0 0 0
BITMAP
ENDCHAR
STARTCHAR 046
ENCODING 46
SWIDTH 187 0
DWIDTH 3 0
BBX 2 2 0 0
BITMAP
C0
C0
ENDCHAR
STARTCHAR 047
ENCODING 47
SWIDTH 312 0
DWIDTH 5 0
BBX 4 9 0 0
BITMAP
30
30
30
60
60
60
C0
C0
C0
ENDCHAR
STARTCHAR 048
ENCODING 48
SWIDTH 437 0
DWIDTH 7 0
BBX 6 9 0 0
BITMAP
78
CC
CC
CC
CC
CC
CC
CC
78
ENDCHAR
STARTCHAR 049
ENCODING 49
SWIDTH 375 0
DWIDTH 6 0
BBX 4 9 0 0
BITMAP
30
70
F0
30
30
30
30
30
30
ENDCHAR
STARTCHAR 050
ENCODING 50
SWIDTH 437 0
DWIDTH 7 0
BBX 6 9 0 0
BITMAP
78
CC
CC
0C
18
30
60
CC
FC
ENDCHAR
STARTCHAR 051
ENCODING 51
SWIDTH 437 0
DWIDTH 7 0
BBX 6 9 0 0
BITMAP
78
CC
CC
0C
18
0C
CC
CC
78
ENDCHAR
STARTCHAR 052
ENCODING 52
SWIDTH 437 0
DWIDTH 7 0
BBX 6 9 0 0
BITMAP
C0
C0
C0
D8
D8
FC
18
18
18
ENDCHAR
STARTCHAR 053
ENCODING 53
SWIDTH 437 0
DWIDTH 7 0
BBX 6 9 0 0
BITMAP
FC
CC
C0
C0
F8
0C
0C
CC
78
ENDCHAR
STARTCHAR 054
ENCODING 54
SWIDTH 437 0
DWIDTH 7 0
BBX 6 9 0 0
BITMAP
78
CC
C0
C0
F8
CC
CC
CC
78
ENDCHAR
STARTCHAR 055
ENCODING 55
SWIDTH 437 0
DWIDTH 7 0
BBX 6 9 0 0
BITMAP
FC
CC
0C
18
30
60
C0
C0
C0
ENDCHAR
STARTCHAR 056
ENCODING 56
SWIDTH 437 0
DWIDTH 7 0
BBX 6 9 0 0
BITMAP
78
CC
CC
CC
78
CC
CC
CC
78
ENDCHAR
STARTCHAR 057
ENCODING 57
SWIDTH 437 0
DWIDTH 7 0
BBX 6 9 0 0
BITMAP
78
CC
CC
CC
7C
0C
0C
CC
78
ENDCHAR
STARTCHAR 058
ENCODING 58
SWIDTH 562 0
DWIDTH 9 0
BBX 0 0 0 0
BITMAP
ENDCHAR
STARTCHAR 059
ENCODING 59
SWIDTH 562 0
DWIDTH 9 0
BBX 0 0 0 0
BITMAP
ENDCHAR
STARTCHAR 060
ENCODING 60
SWIDTH 562 0
DWIDTH 9 0
BBX 8 11 0 -1
BITMAP
7E
81
FF
81
81
81
81
FF
BD
FF
42
ENDCHAR
STARTCHAR 061
ENCODING 61
SWIDTH 562 0
DWIDTH 9 0
BBX 0 0 0 0
BITMAP
ENDCHAR
STARTCHAR 062
ENCODING 62
SWIDTH 625 0
DWIDTH 10 0
BBX 10 11 0 -1
BITMAP
1800
1800
0000
1800
3F00
5800
9F80
9F80
8280
4480
38C0
ENDCHAR
STARTCHAR 063
ENCODING 63
SWIDTH 562 0
DWIDTH 9 0
BBX 0 0 0 0
BITMAP
ENDCHAR
STARTCHAR 064
ENCODING 64
SWIDTH 562 0
DWIDTH 9 0
BBX 0 0 0 0
BITMAP
ENDCHAR
STARTCHAR 065
ENCODING 65
SWIDTH 437 0
DWIDTH 7 0
BBX 6 9 0 0
BITMAP
78
CC
CC
CC
CC
FC
CC
CC
CC
ENDCHAR
STARTCHAR 066
ENCODING 66
SWIDTH 437 0
DWIDTH 7 0
BBX 6 9 0 0
BITMAP
F8
CC
CC
CC
F8
CC
CC
CC
F8
ENDCHAR
STARTCHAR 066
ENCODING 67
SWIDTH 437 0
DWIDTH 7 0
BBX 6 9 0 0
BITMAP
78
CC
CC
C0
C0
C0
CC
CC
78
ENDCHAR
STARTCHAR 068
ENCODING 68
SWIDTH 562 0
DWIDTH 9 0
BBX 0 0 0 0
BITMAP
ENDCHAR
STARTCHAR 069
ENCODING 69
SWIDTH 437 0
DWIDTH 7 0
BBX 6 9 0 0
BITMAP
FC
CC
C0
C0
F0
C0
C0
CC
FC
ENDCHAR
STARTCHAR 070
ENCODING 70
SWIDTH 437 0
DWIDTH 7 0
BBX 6 9 0 0
BITMAP
FC
CC
C0
C0
F0
C0
C0
C0
C0
ENDCHAR
STARTCHAR 069
ENCODING 71
SWIDTH 437 0
DWIDTH 7 0
BBX 6 9 0 0
BITMAP
78
CC
CC
C0
C0
DC
CC
CC
78
ENDCHAR
STARTCHAR 072
ENCODING 72
SWIDTH 437 0
DWIDTH 7 0
BBX 6 9 0 0
BITMAP
CC
CC
CC
CC
FC
CC
CC
CC
CC
ENDCHAR
STARTCHAR 072
ENCODING 73
SWIDTH 125 0
DWIDTH 2 0
BBX 2 9 0 0
BITMAP
C0
C0
C0
C0
C0
C0
C0
C0
C0
ENDCHAR
STARTCHAR 074
ENCODING 74
SWIDTH 562 0
DWIDTH 9 0
BBX 0 0 0 0
BITMAP
ENDCHAR
STARTCHAR 075
ENCODING 75
SWIDTH 437 0
DWIDTH 7 0
BBX 6 9 0 0
BITMAP
CC
CC
D8
F0
E0
F0
D8
CC
CC
ENDCHAR
STARTCHAR 075
ENCODING 76
SWIDTH 437 0
DWIDTH 7 0
BBX 6 9 0 0
BITMAP
C0
C0
C0
C0
C0
C0
C0
CC
FC
ENDCHAR
STARTCHAR 077
ENCODING 77
SWIDTH 562 0
DWIDTH 9 0
BBX 8 9 0 0
BITMAP
C3
E7
FF
DB
C3
C3
C3
C3
C3
ENDCHAR
STARTCHAR 078
ENCODING 78
SWIDTH 562 0
DWIDTH 9 0
BBX 0 0 0 0
BITMAP
ENDCHAR
STARTCHAR 079
ENCODING 79
SWIDTH 562 0
DWIDTH 9 0
BBX 0 0 0 0
BITMAP
ENDCHAR
STARTCHAR 080
ENCODING 80
SWIDTH 562 0
DWIDTH 9 0
BBX 0 0 0 0
BITMAP
ENDCHAR
STARTCHAR 081
ENCODING 81
SWIDTH 562 0
DWIDTH 9 0
BBX 0 0 0 0
BITMAP
ENDCHAR
STARTCHAR 082
ENCODING 82
SWIDTH 437 0
DWIDTH 7 0
BBX 6 9 0 0
BITMAP
F8
CC
CC
CC
F8
F0
DC
CC
CC
ENDCHAR
STARTCHAR 083
ENCODING 83
SWIDTH 437 0
DWIDTH 7 0
BBX 6 9 0 0
BITMAP
78
CC
C0
E0
78
1C
0C
CC
78
ENDCHAR
STARTCHAR 084
ENCODING 84
SWIDTH 437 0
DWIDTH 7 0
BBX 6 9 0 0
BITMAP
FC
B4
30
30
30
30
30
30
30
ENDCHAR
STARTCHAR 087
ENCODING 85
SWIDTH 375 0
DWIDTH 6 0
BBX 6 9 0 0
BITMAP
CC
CC
CC
CC
CC
CC
CC
CC
78
ENDCHAR
STARTCHAR 086
ENCODING 86
SWIDTH 562 0
DWIDTH 9 0
BBX 0 0 0 0
BITMAP
ENDCHAR
STARTCHAR 087
ENCODING 87
SWIDTH 562 0
DWIDTH 9 0
BBX 8 9 0 0
BITMAP
C3
C3
C3
C3
C3
DB
DB
7E
24
ENDCHAR
STARTCHAR 088
ENCODING 88
SWIDTH 562 0
DWIDTH 9 0
BBX 0 0 0 0
BITMAP
ENDCHAR
STARTCHAR 089
ENCODING 89
SWIDTH 562 0
DWIDTH 9 0
BBX 0 0 0 0
BITMAP
ENDCHAR
STARTCHAR 090
ENCODING 90
SWIDTH 562 0
DWIDTH 9 0
BBX 0 0 0 0
BITMAP
ENDCHAR
STARTCHAR 091
ENCODING 91
SWIDTH 562 0
DWIDTH 9 0
BBX 0 0 0 0
BITMAP
ENDCHAR
STARTCHAR 092
ENCODING 92
SWIDTH 562 0
DWIDTH 9 0
BBX 0 0 0 0
BITMAP
ENDCHAR
STARTCHAR 093
ENCODING 93
SWIDTH 562 0
DWIDTH 9 0
BBX 0 0 0 0
BITMAP
ENDCHAR
STARTCHAR 094
ENCODING 94
SWIDTH 562 0
DWIDTH 9 0
BBX 0 0 0 0
BITMAP
ENDCHAR
STARTCHAR 095
ENCODING 95
SWIDTH 562 0
DWIDTH 9 0
BBX 0 0 0 0
BITMAP
ENDCHAR
STARTCHAR 096
ENCODING 96
SWIDTH 562 0
DWIDTH 9 0
BBX 0 0 0 0
BITMAP
ENDCHAR
STARTCHAR 097
ENCODING 97
SWIDTH 437 0
DWIDTH 7 0
BBX 6 7 0 0
BITMAP
78
CC
0C
7C
CC
CC
74
ENDCHAR
STARTCHAR 098
ENCODING 98
SWIDTH 437 0
DWIDTH 7 0
BBX 6 9 0 0
BITMAP
C0
C0
F8
CC
CC
CC
CC
CC
F8
ENDCHAR
STARTCHAR 099
ENCODING 99
SWIDTH 437 0
DWIDTH 7 0
BBX 6 7 0 0
BITMAP
78
CC
C0
C0
C0
CC
78
ENDCHAR
STARTCHAR 100
ENCODING 100
SWIDTH 437 0
DWIDTH 7 0
BBX 6 9 0 0
BITMAP
0C
0C
7C
CC
CC
CC
CC
CC
7C
ENDCHAR
STARTCHAR 101
ENCODING 101
SWIDTH 437 0
DWIDTH 7 0
BBX 6 7 0 0
BITMAP
78
CC
CC
FC
C0
CC
78
ENDCHAR
STARTCHAR 102
ENCODING 102
SWIDTH 312 0
DWIDTH 5 0
BBX 4 9 0 0
BITMAP
30
60
60
F0
60
60
60
60
60
ENDCHAR
STARTCHAR 103
ENCODING 103
SWIDTH 437 0
DWIDTH 7 0
BBX 6 9 0 -2
BITMAP
78
CC
CC
CC
CC
7C
0C
CC
78
ENDCHAR
STARTCHAR 104
ENCODING 104
SWIDTH 437 0
DWIDTH 7 0
BBX 6 9 0 0
BITMAP
C0
C0
F8
CC
CC
CC
CC
CC
CC
ENDCHAR
STARTCHAR 105
ENCODING 105
SWIDTH 187 0
DWIDTH 3 0
BBX 2 10 0 0
BITMAP
C0
C0
00
C0
C0
C0
C0
C0
C0
C0
ENDCHAR
STARTCHAR 106
ENCODING 106
SWIDTH 562 0
DWIDTH 9 0
BBX 0 0 0 0
BITMAP
ENDCHAR
STARTCHAR 107
ENCODING 107
SWIDTH 437 0
DWIDTH 7 0
BBX 6 9 0 0
BITMAP
C0
C0
CC
D8
F0
F0
D8
CC
C4
ENDCHAR
STARTCHAR 108
ENCODING 108
SWIDTH 250 0
DWIDTH 4 0
BBX 3 9 0 0
BITMAP
C0
C0
C0
C0
C0
C0
C0
C0
60
ENDCHAR
STARTCHAR 109
ENCODING 109
SWIDTH 625 0
DWIDTH 10 0
BBX 9 7 0 0
BITMAP
DB00
FF80
C980
C980
C980
C980
C980
ENDCHAR
STARTCHAR 110
ENCODING 110
SWIDTH 437 0
DWIDTH 7 0
BBX 6 7 0 0
BITMAP
D8
FC
CC
CC
CC
CC
CC
ENDCHAR
STARTCHAR 111
ENCODING 111
SWIDTH 437 0
DWIDTH 7 0
BBX 6 7 0 0
BITMAP
78
CC
CC
CC
CC
CC
78
ENDCHAR
STARTCHAR 112
ENCODING 112
SWIDTH 437 0
DWIDTH 7 0
BBX 6 9 0 -2
BITMAP
F8
CC
CC
CC
CC
CC
F8
C0
C0
ENDCHAR
STARTCHAR 113
ENCODING 113
SWIDTH 437 0
DWIDTH 7 0
BBX 6 9 0 -2
BITMAP
7C
CC
CC
CC
CC
CC
7C
0C
0C
ENDCHAR
STARTCHAR 114
ENCODING 114
SWIDTH 312 0
DWIDTH 5 0
BBX 4 7 0 0
BITMAP
B0
F0
C0
C0
C0
C0
C0
ENDCHAR
STARTCHAR 115
ENCODING 115
SWIDTH 437 0
DWIDTH 7 0
BBX 6 7 0 0
BITMAP
78
CC
C0
78
0C
CC
78
ENDCHAR
STARTCHAR 116
ENCODING 116
SWIDTH 312 0
DWIDTH 5 0
BBX 4 9 0 0
BITMAP
60
60
F0
60
60
60
60
60
30
ENDCHAR
STARTCHAR 117
ENCODING 117
SWIDTH 437 0
DWIDTH 7 0
BBX 6 7 0 0
BITMAP
CC
CC
CC
CC
CC
FC
6C
ENDCHAR
STARTCHAR 118
ENCODING 118
SWIDTH 437 0
DWIDTH 7 0
BBX 6 7 0 0
BITMAP
CC
CC
CC
CC
CC
78
30
ENDCHAR
STARTCHAR 119
ENCODING 119
SWIDTH 562 0
DWIDTH 9 0
BBX 9 7 0 0
BITMAP
C180
C180
C980
C980
C980
7F00
3600
ENDCHAR
STARTCHAR 120
ENCODING 120
SWIDTH 562 0
DWIDTH 9 0
BBX 0 0 0 0
BITMAP
ENDCHAR
STARTCHAR 121
ENCODING 121
SWIDTH 562 0
DWIDTH 9 0
BBX 0 0 0 0
BITMAP
ENDCHAR
STARTCHAR 122
ENCODING 122
SWIDTH 437 0
DWIDTH 7 0
BBX 6 7 0 0
BITMAP
FC
8C
18
30
60
C4
FC
ENDCHAR
STARTCHAR 097
ENCODING 123
SWIDTH 437 0
DWIDTH 7 0
BBX 6 10 0 0
BITMAP
CC
CC
00
78
CC
0C
7C
CC
CC
74
ENDCHAR
STARTCHAR 111
ENCODING 124
SWIDTH 437 0
DWIDTH 7 0
BBX 6 10 0 0
BITMAP
CC
CC
00
78
CC
CC
CC
CC
CC
78
ENDCHAR
STARTCHAR 117
ENCODING 125
SWIDTH 437 0
DWIDTH 7 0
BBX 6 10 0 0
BITMAP
CC
CC
00
CC
CC
CC
CC
CC
FC
6C
ENDCHAR
STARTCHAR 126
ENCODING 126
SWIDTH 562 0
DWIDTH 9 0
BBX 0 0 0 0
BITMAP
ENDCHAR
STARTCHAR 127
ENCODING 127
SWIDTH 562 0
DWIDTH 9 0
BBX 0 0 0 0
BITMAP
ENDCHAR
STARTCHAR 128
ENCODING 128
SWIDTH 562 0
DWIDTH 9 0
BBX 0 0 0 0
BITMAP
ENDCHAR
STARTCHAR 129
ENCODING 129
SWIDTH 562 0
DWIDTH 9 0
BBX 0 0 0 0
BITMAP
ENDCHAR
STARTCHAR 130
ENCODING 130
SWIDTH 562 0
DWIDTH 9 0
BBX 0 0 0 0
BITMAP
ENDCHAR
STARTCHAR 131
ENCODING 131
SWIDTH 562 0
DWIDTH 9 0
BBX 0 0 0 0
BITMAP
ENDCHAR
STARTCHAR 132
ENCODING 132
SWIDTH 562 0
DWIDTH 9 0
BBX 0 0 0 0
BITMAP
ENDCHAR
STARTCHAR 133
ENCODING 133
SWIDTH 562 0
DWIDTH 9 0
BBX 0 0 0 0
BITMAP
ENDCHAR
STARTCHAR 134
ENCODING 134
SWIDTH 562 0
DWIDTH 9 0
BBX 0 0 0 0
BITMAP
ENDCHAR
STARTCHAR 135
ENCODING 135
SWIDTH 562 0
DWIDTH 9 0
BBX 0 0 0 0
BITMAP
ENDCHAR
STARTCHAR 136
ENCODING 136
SWIDTH 562 0
DWIDTH 9 0
BBX 0 0 0 0
BITMAP
ENDCHAR
STARTCHAR 137
ENCODING 137
SWIDTH 562 0
DWIDTH 9 0
BBX 0 0 0 0
BITMAP
ENDCHAR
STARTCHAR 138
ENCODING 138
SWIDTH 562 0
DWIDTH 9 0
BBX 0 0 0 0
BITMAP
ENDCHAR
STARTCHAR 139
ENCODING 139
SWIDTH 562 0
DWIDTH 9 0
BBX 0 0 0 0
BITMAP
ENDCHAR
STARTCHAR 140
ENCODING 140
SWIDTH 562 0
DWIDTH 9 0
BBX 0 0 0 0
BITMAP
ENDCHAR
STARTCHAR 141
ENCODING 141
SWIDTH 562 0
DWIDTH 9 0
BBX 0 0 0 0
BITMAP
ENDCHAR
STARTCHAR 142
ENCODING 142
SWIDTH 562 0
DWIDTH 9 0
BBX 0 0 0 0
BITMAP
ENDCHAR
STARTCHAR 143
ENCODING 143
SWIDTH 562 0
DWIDTH 9 0
BBX 0 0 0 0
BITMAP
ENDCHAR
STARTCHAR 144
ENCODING 144
SWIDTH 562 0
DWIDTH 9 0
BBX 0 0 0 0
BITMAP
ENDCHAR
STARTCHAR 145
ENCODING 145
SWIDTH 562 0
DWIDTH 9 0
BBX 0 0 0 0
BITMAP
ENDCHAR
STARTCHAR 146
ENCODING 146
SWIDTH 562 0
DWIDTH 9 0
BBX 0 0 0 0
BITMAP
ENDCHAR
STARTCHAR 147
ENCODING 147
SWIDTH 562 0
DWIDTH 9 0
BBX 0 0 0 0
BITMAP
ENDCHAR
STARTCHAR 148
ENCODING 148
SWIDTH 562 0
DWIDTH 9 0
BBX 0 0 0 0
BITMAP
ENDCHAR
STARTCHAR 149
ENCODING 149
SWIDTH 562 0
DWIDTH 9 0
BBX 0 0 0 0
BITMAP
ENDCHAR
STARTCHAR 150
ENCODING 150
SWIDTH 562 0
DWIDTH 9 0
BBX 0 0 0 0
BITMAP
ENDCHAR
STARTCHAR 151
ENCODING 151
SWIDTH 562 0
DWIDTH 9 0
BBX 0 0 0 0
BITMAP
ENDCHAR
STARTCHAR 152
ENCODING 152
SWIDTH 562 0
DWIDTH 9 0
BBX 0 0 0 0
BITMAP
ENDCHAR
STARTCHAR 153
ENCODING 153
SWIDTH 562 0
DWIDTH 9 0
BBX 0 0 0 0
BITMAP
ENDCHAR
STARTCHAR 154
ENCODING 154
SWIDTH 562 0
DWIDTH 9 0
BBX 0 0 0 0
BITMAP
ENDCHAR
STARTCHAR 155
ENCODING 155
SWIDTH 562 0
DWIDTH 9 0
BBX 0 0 0 0
BITMAP
ENDCHAR
STARTCHAR 156
ENCODING 156
SWIDTH 562 0
DWIDTH 9 0
BBX 0 0 0 0
BITMAP
ENDCHAR
STARTCHAR 157
ENCODING 157
SWIDTH 562 0
DWIDTH 9 0
BBX 0 0 0 0
BITMAP
ENDCHAR
STARTCHAR 158
ENCODING 158
SWIDTH 562 0
DWIDTH 9 0
BBX 0 0 0 0
BITMAP
ENDCHAR
STARTCHAR 159
ENCODING 159
SWIDTH 562 0
DWIDTH 9 0
BBX 0 0 0 0
BITMAP
ENDCHAR
STARTCHAR 160
ENCODING 160
SWIDTH 562 0
DWIDTH 9 0
BBX 0 0 0 0
BITMAP
ENDCHAR
STARTCHAR 161
ENCODING 161
SWIDTH 562 0
DWIDTH 9 0
BBX 0 0 0 0
BITMAP
ENDCHAR
STARTCHAR 162
ENCODING 162
SWIDTH 562 0
DWIDTH 9 0
BBX 0 0 0 0
BITMAP
ENDCHAR
STARTCHAR 163
ENCODING 163
SWIDTH 562 0
DWIDTH 9 0
BBX 0 0 0 0
BITMAP
ENDCHAR
STARTCHAR 164
ENCODING 164
SWIDTH 562 0
DWIDTH 9 0
BBX 0 0 0 0
BITMAP
ENDCHAR
STARTCHAR 165
ENCODING 165
SWIDTH 562 0
DWIDTH 9 0
BBX 0 0 0 0
BITMAP
ENDCHAR
STARTCHAR 166
ENCODING 166
SWIDTH 562 0
DWIDTH 9 0
BBX 0 0 0 0
BITMAP
ENDCHAR
STARTCHAR 167
ENCODING 167
SWIDTH 562 0
DWIDTH 9 0
BBX 0 0 0 0
BITMAP
ENDCHAR
STARTCHAR 168
ENCODING 168
SWIDTH 562 0
DWIDTH 9 0
BBX 0 0 0 0
BITMAP
ENDCHAR
STARTCHAR 169
ENCODING 169
SWIDTH 562 0
DWIDTH 9 0
BBX 0 0 0 0
BITMAP
ENDCHAR
STARTCHAR 170
ENCODING 170
SWIDTH 562 0
DWIDTH 9 0
BBX 0 0 0 0
BITMAP
ENDCHAR
STARTCHAR 171
ENCODING 171
SWIDTH 562 0
DWIDTH 9 0
BBX 0 0 0 0
BITMAP
ENDCHAR
STARTCHAR 172
ENCODING 172
SWIDTH 562 0
DWIDTH 9 0
BBX 0 0 0 0
BITMAP
ENDCHAR
STARTCHAR 173
ENCODING 173
SWIDTH 562 0
DWIDTH 9 0
BBX 0 0 0 0
BITMAP
ENDCHAR
STARTCHAR 174
ENCODING 174
SWIDTH 562 0
DWIDTH 9 0
BBX 0 0 0 0
BITMAP
ENDCHAR
STARTCHAR 175
ENCODING 175
SWIDTH 562 0
DWIDTH 9 0
BBX 0 0 0 0
BITMAP
ENDCHAR
STARTCHAR 176
ENCODING 176
SWIDTH 562 0
DWIDTH 9 0
BBX 0 0 0 0
BITMAP
ENDCHAR
STARTCHAR 177
ENCODING 177
SWIDTH 562 0
DWIDTH 9 0
BBX 0 0 0 0
BITMAP
ENDCHAR
STARTCHAR 178
ENCODING 178
SWIDTH 562 0
DWIDTH 9 0
BBX 0 0 0 0
BITMAP
ENDCHAR
STARTCHAR 179
ENCODING 179
SWIDTH 562 0
DWIDTH 9 0
BBX 0 0 0 0
BITMAP
ENDCHAR
STARTCHAR 180
ENCODING 180
SWIDTH 562 0
DWIDTH 9 0
BBX 0 0 0 0
BITMAP
ENDCHAR
STARTCHAR 181
ENCODING 181
SWIDTH 562 0
DWIDTH 9 0
BBX 0 0 0 0
BITMAP
ENDCHAR
STARTCHAR 182
ENCODING 182
SWIDTH 562 0
DWIDTH 9 0
BBX 0 0 0 0
BITMAP
ENDCHAR
STARTCHAR 183
ENCODING 183
SWIDTH 562 0
DWIDTH 9 0
BBX 0 0 0 0
BITMAP
ENDCHAR
STARTCHAR 184
ENCODING 184
SWIDTH 562 0
DWIDTH 9 0
BBX 0 0 0 0
BITMAP
ENDCHAR
STARTCHAR 185
ENCODING 185
SWIDTH 562 0
DWIDTH 9 0
BBX 0 0 0 0
BITMAP
ENDCHAR
STARTCHAR 186
ENCODING 186
SWIDTH 562 0
DWIDTH 9 0
BBX 0 0 0 0
BITMAP
ENDCHAR
STARTCHAR 187
ENCODING 187
SWIDTH 562 0
DWIDTH 9 0
BBX 0 0 0 0
BITMAP
ENDCHAR
STARTCHAR 188
ENCODING 188
SWIDTH 562 0
DWIDTH 9 0
BBX 0 0 0 0
BITMAP
ENDCHAR
STARTCHAR 189
ENCODING 189
SWIDTH 562 0
DWIDTH 9 0
BBX 0 0 0 0
BITMAP
ENDCHAR
STARTCHAR 190
ENCODING 190
SWIDTH 562 0
DWIDTH 9 0
BBX 0 0 0 0
BITMAP
ENDCHAR
STARTCHAR 191
ENCODING 191
SWIDTH 562 0
DWIDTH 9 0
BBX 0 0 0 0
BITMAP
ENDCHAR
STARTCHAR 192
ENCODING 192
SWIDTH 562 0
DWIDTH 9 0
BBX 0 0 0 0
BITMAP
ENDCHAR
STARTCHAR 193
ENCODING 193
SWIDTH 562 0
DWIDTH 9 0
BBX 0 0 0 0
BITMAP
ENDCHAR
STARTCHAR 194
ENCODING 194
SWIDTH 562 0
DWIDTH 9 0
BBX 0 0 0 0
BITMAP
ENDCHAR
STARTCHAR 195
ENCODING 195
SWIDTH 562 0
DWIDTH 9 0
BBX 0 0 0 0
BITMAP
ENDCHAR
STARTCHAR 196
ENCODING 196
SWIDTH 562 0
DWIDTH 9 0
BBX 0 0 0 0
BITMAP
ENDCHAR
STARTCHAR 197
ENCODING 197
SWIDTH 562 0
DWIDTH 9 0
BBX 0 0 0 0
BITMAP
ENDCHAR
STARTCHAR 198
ENCODING 198
SWIDTH 562 0
DWIDTH 9 0
BBX 0 0 0 0
BITMAP
ENDCHAR
STARTCHAR 199
ENCODING 199
SWIDTH 562 0
DWIDTH 9 0
BBX 0 0 0 0
BITMAP
ENDCHAR
STARTCHAR 200
ENCODING 200
SWIDTH 562 0
DWIDTH 9 0
BBX 0 0 0 0
BITMAP
ENDCHAR
STARTCHAR 201
ENCODING 201
SWIDTH 562 0
DWIDTH 9 0
BBX 0 0 0 0
BITMAP
ENDCHAR
STARTCHAR 202
ENCODING 202
SWIDTH 562 0
DWIDTH 9 0
BBX 0 0 0 0
BITMAP
ENDCHAR
STARTCHAR 203
ENCODING 203
SWIDTH 562 0
DWIDTH 9 0
BBX 0 0 0 0
BITMAP
ENDCHAR
STARTCHAR 204
ENCODING 204
SWIDTH 562 0
DWIDTH 9 0
BBX 0 0 0 0
BITMAP
ENDCHAR
STARTCHAR 205
ENCODING 205
SWIDTH 562 0
DWIDTH 9 0
BBX 0 0 0 0
BITMAP
ENDCHAR
STARTCHAR 206
ENCODING 206
SWIDTH 562 0
DWIDTH 9 0
BBX 0 0 0 0
BITMAP
ENDCHAR
STARTCHAR 207
ENCODING 207
SWIDTH 562 0
DWIDTH 9 0
BBX 0 0 0 0
BITMAP
ENDCHAR
STARTCHAR 208
ENCODING 208
SWIDTH 562 0
DWIDTH 9 0
BBX 0 0 0 0
BITMAP
ENDCHAR
STARTCHAR 209
ENCODING 209
SWIDTH 562 0
DWIDTH 9 0
BBX 0 0 0 0
BITMAP
ENDCHAR
STARTCHAR 210
ENCODING 210
SWIDTH 562 0
DWIDTH 9 0
BBX 0 0 0 0
BITMAP
ENDCHAR
STARTCHAR 211
ENCODING 211
SWIDTH 562 0
DWIDTH 9 0
BBX 0 0 0 0
BITMAP
ENDCHAR
STARTCHAR 212
ENCODING 212
SWIDTH 562 0
DWIDTH 9 0
BBX 0 0 0 0
BITMAP
ENDCHAR
STARTCHAR 213
ENCODING 213
SWIDTH 562 0
DWIDTH 9 0
BBX 0 0 0 0
BITMAP
ENDCHAR
STARTCHAR 214
ENCODING 214
SWIDTH 562 0
DWIDTH 9 0
BBX 0 0 0 0
BITMAP
ENDCHAR
STARTCHAR 215
ENCODING 215
SWIDTH 562 0
DWIDTH 9 0
BBX 0 0 0 0
BITMAP
ENDCHAR
STARTCHAR 216
ENCODING 216
SWIDTH 562 0
DWIDTH 9 0
BBX 0 0 0 0
BITMAP
ENDCHAR
STARTCHAR 217
ENCODING 217
SWIDTH 562 0
DWIDTH 9 0
BBX 0 0 0 0
BITMAP
ENDCHAR
STARTCHAR 218
ENCODING 218
SWIDTH 562 0
DWIDTH 9 0
BBX 0 0 0 0
BITMAP
ENDCHAR
STARTCHAR 219
ENCODING 219
SWIDTH 562 0
DWIDTH 9 0
BBX 0 0 0 0
BITMAP
ENDCHAR
STARTCHAR 220
ENCODING 220
SWIDTH 562 0
DWIDTH 9 0
BBX 0 0 0 0
BITMAP
ENDCHAR
STARTCHAR 221
ENCODING 221
SWIDTH 562 0
DWIDTH 9 0
BBX 0 0 0 0
BITMAP
ENDCHAR
STARTCHAR 222
ENCODING 222
SWIDTH 562 0
DWIDTH 9 0
BBX 0 0 0 0
BITMAP
ENDCHAR
STARTCHAR 223
ENCODING 223
SWIDTH 562 0
DWIDTH 9 0
BBX 0 0 0 0
BITMAP
ENDCHAR
STARTCHAR 224
ENCODING 224
SWIDTH 562 0
DWIDTH 9 0
BBX 0 0 0 0
BITMAP
ENDCHAR
STARTCHAR 225
ENCODING 225
SWIDTH 562 0
DWIDTH 9 0
BBX 0 0 0 0
BITMAP
ENDCHAR
STARTCHAR 226
ENCODING 226
SWIDTH 562 0
DWIDTH 9 0
BBX 0 0 0 0
BITMAP
ENDCHAR
STARTCHAR 227
ENCODING 227
SWIDTH 562 0
DWIDTH 9 0
BBX 0 0 0 0
BITMAP
ENDCHAR
STARTCHAR 228
ENCODING 228
SWIDTH 437 0
DWIDTH 7 0
BBX 6 10 0 0
BITMAP
CC
CC
00
78
CC
0C
7C
CC
CC
74
ENDCHAR
STARTCHAR 229
ENCODING 229
SWIDTH 562 0
DWIDTH 9 0
BBX 0 0 0 0
BITMAP
ENDCHAR
STARTCHAR 230
ENCODING 230
SWIDTH 562 0
DWIDTH 9 0
BBX 0 0 0 0
BITMAP
ENDCHAR
STARTCHAR 231
ENCODING 231
SWIDTH 562 0
DWIDTH 9 0
BBX 0 0 0 0
BITMAP
ENDCHAR
STARTCHAR 232
ENCODING 232
SWIDTH 562 0
DWIDTH 9 0
BBX 0 0 0 0
BITMAP
ENDCHAR
STARTCHAR 233
ENCODING 233
SWIDTH 562 0
DWIDTH 9 0
BBX 0 0 0 0
BITMAP
ENDCHAR
STARTCHAR 234
ENCODING 234
SWIDTH 562 0
DWIDTH 9 0
BBX 0 0 0 0
BITMAP
ENDCHAR
STARTCHAR 235
ENCODING 235
SWIDTH 562 0
DWIDTH 9 0
BBX 0 0 0 0
BITMAP
ENDCHAR
STARTCHAR 236
ENCODING 236
SWIDTH 562 0
DWIDTH 9 0
BBX 0 0 0 0
BITMAP
ENDCHAR
STARTCHAR 237
ENCODING 237
SWIDTH 562 0
DWIDTH 9 0
BBX 0 0 0 0
BITMAP
ENDCHAR
STARTCHAR 238
ENCODING 238
SWIDTH 562 0
DWIDTH 9 0
BBX 0 0 0 0
BITMAP
ENDCHAR
STARTCHAR 239
ENCODING 239
SWIDTH 562 0
DWIDTH 9 0
BBX 0 0 0 0
BITMAP
ENDCHAR
STARTCHAR 240
ENCODING 240
SWIDTH 562 0
DWIDTH 9 0
BBX 0 0 0 0
BITMAP
ENDCHAR
STARTCHAR 241
ENCODING 241
SWIDTH 562 0
DWIDTH 9 0
BBX 0 0 0 0
BITMAP
ENDCHAR
STARTCHAR 242
ENCODING 242
SWIDTH 562 0
DWIDTH 9 0
BBX 0 0 0 0
BITMAP
ENDCHAR
STARTCHAR 243
ENCODING 243
SWIDTH 562 0
DWIDTH 9 0
BBX 0 0 0 0
BITMAP
ENDCHAR
STARTCHAR 244
ENCODING 244
SWIDTH 562 0
DWIDTH 9 0
BBX 0 0 0 0
BITMAP
ENDCHAR
STARTCHAR 245
ENCODING 245
SWIDTH 562 0
DWIDTH 9 0
BBX 0 0 0 0
BITMAP
ENDCHAR
STARTCHAR 246
ENCODING 246
SWIDTH 437 0
DWIDTH 7 0
BBX 6 10 0 0
BITMAP
CC
CC
00
78
CC
CC
CC
CC
CC
78
ENDCHAR
STARTCHAR 247
ENCODING 247
SWIDTH 562 0
DWIDTH 9 0
BBX 0 0 0 0
BITMAP
ENDCHAR
STARTCHAR 248
ENCODING 248
SWIDTH 562 0
DWIDTH 9 0
BBX 0 0 0 0
BITMAP
ENDCHAR
STARTCHAR 249
ENCODING 249
SWIDTH 562 0
DWIDTH 9 0
BBX 0 0 0 0
BITMAP
ENDCHAR
STARTCHAR 250
ENCODING 250
SWIDTH 562 0
DWIDTH 9 0
BBX 0 0 0 0
BITMAP
ENDCHAR
STARTCHAR 251
ENCODING 251
SWIDTH 562 0
DWIDTH 9 0
BBX 0 0 0 0
BITMAP
ENDCHAR
STARTCHAR 252
ENCODING 252
SWIDTH 437 0
DWIDTH 7 0
BBX 6 10 0 0
BITMAP
CC
CC
00
CC
CC
CC
CC
CC
FC
6C
ENDCHAR
STARTCHAR 253
ENCODING 253
SWIDTH 562 0
DWIDTH 9 0
BBX 0 0 0 0
BITMAP
ENDCHAR
STARTCHAR 254
ENCODING 254
SWIDTH 562 0
DWIDTH 9 0
BBX 0 0 0 0
BITMAP
ENDCHAR
STARTCHAR 255
ENCODING 255
SWIDTH 562 0
DWIDTH 9 0
BBX 0 0 0 0
BITMAP
ENDCHAR
ENDFONT
